<?xml version="1.0" standalone="no"?>
<!DOCTYPE svg PUBLIC "-//W3C//DTD SVG 1.1//EN" "http://www.w3.org/Graphics/SVG/1.1/DTD/svg11.dtd" >
<svg xmlns="http://www.w3.org/2000/svg" xmlns:xlink="http://www.w3.org/1999/xlink" version="1.1">
<metadata></metadata>
<defs>
<font id="big_john_probold" horiz-adv-x="1701" >
<font-face units-per-em="2048" ascent="1536" descent="-512" />
<missing-glyph horiz-adv-x="512" />
<glyph horiz-adv-x="0" />
<glyph horiz-adv-x="682" />
<glyph unicode="&#xd;" horiz-adv-x="1228" />
<glyph unicode=" "  horiz-adv-x="512" />
<glyph unicode="&#x09;" horiz-adv-x="512" />
<glyph unicode="&#xa0;" horiz-adv-x="512" />
<glyph unicode="!" horiz-adv-x="528" d="M102 162q0 68 47.5 116t114.5 48t114.5 -48t47.5 -116t-47 -115t-115 -47t-115 47t-47 115zM102 410v1126h324v-1126h-324z" />
<glyph unicode="&#x22;" horiz-adv-x="1228" d="M252 1434h260l-45 -426h-176zM621 1434h260l-45 -426h-177z" />
<glyph unicode="$" horiz-adv-x="1277" d="M61 469h410q0 -50 42 -84.5t108 -34.5q63 0 104 33t41 86q0 55 -43.5 88t-106.5 33q-147 0 -274 63t-203 172.5t-76 237.5q0 163 108.5 287.5t287.5 167.5v151h319v-151q174 -43 286 -168.5t112 -284.5h-408q0 48 -42.5 83.5t-104.5 35.5q-66 0 -107 -32.5t-41 -86.5 t41 -87.5t107 -33.5q233 0 394 -138.5t161 -334.5q0 -161 -111.5 -286t-286.5 -167v-124h-319v126q-179 42 -288.5 167.5t-109.5 281.5z" />
<glyph unicode="%" horiz-adv-x="1277" d="M102 0l709 1536h360l-710 -1536h-359zM102 1370q0 66 48 116t114 50t114 -50t48 -116t-48 -113t-114 -47t-114 47t-48 113zM852 160q0 66 48 116t114 50t114 -50t48 -116t-48 -113t-114 -47t-114 47t-48 113z" />
<glyph unicode="&#x26;" horiz-adv-x="1503" d="M123 1151q0 41 12 89t42 101t73 96t112 71t152 28t150.5 -30t108 -74.5t68 -100t38 -103t10.5 -87.5q0 -154 -137 -287l-209 -209q-72 -65 -72 -137q0 -65 47 -125.5t127 -60.5q36 0 69.5 13t48.5 27l15 13l228 227l374 -375l-225 -229l-147 147q-5 -6 -14 -15.5 t-42 -34.5t-71 -44.5t-99.5 -35t-128.5 -15.5q-72 0 -145 22.5t-137.5 66t-115 101.5t-79.5 134.5t-29 160.5q0 67 17.5 132t42.5 109.5t50 79t43 51.5l17 17l234 238q14 16 14 39q0 21 -16 37t-39 16q-11 0 -23 -4t-18 -8l-6 -4q-17 -17 -45 -44t-87.5 -84t-99 -94 t-38.5 -36q0 1 -6.5 12t-17 31.5t-21 46t-18 61t-7.5 70.5z" />
<glyph unicode="(" horiz-adv-x="849" d="M41 766q0 157 60.5 299.5t163 245.5t245 164t299.5 61v-326q-185 0 -313.5 -129t-128.5 -315q0 -184 128.5 -313t313.5 -129v-324q-157 0 -299.5 60t-245 162.5t-163 244.5t-60.5 299z" />
<glyph unicode=")" horiz-adv-x="849" d="M41 0v324q185 0 313.5 129t128.5 313q0 186 -128.5 315t-313.5 129v326q157 0 299.5 -61t245 -164t163 -245.5t60.5 -299.5t-60.5 -299t-163 -244.5t-245 -162.5t-299.5 -60z" />
<glyph unicode="+" horiz-adv-x="1173" d="M102 578v323h322v324h326v-324h321v-323h-321v-322h-326v322h-322z" />
<glyph unicode="," horiz-adv-x="491" d="M84 158q0 66 48 116t114 50t114 -50t48 -116v-20.5t-7.5 -52.5t-22.5 -76.5t-49.5 -86.5t-82.5 -90v168q-66 0 -114 46t-48 112z" />
<glyph unicode="-" horiz-adv-x="1011" d="M102 700v324h807v-324h-807z" />
<glyph unicode="." horiz-adv-x="491" d="M84 166q0 69 46.5 115.5t115.5 46.5t115.5 -46.5t46.5 -115.5t-46.5 -117.5t-115.5 -48.5t-115.5 48.5t-46.5 117.5z" />
<glyph unicode="/" horiz-adv-x="1150" d="M41 0l709 1536h360l-711 -1536h-358z" />
<glyph unicode="0" horiz-adv-x="1253" d="M123 502v532q0 136 67 251.5t182.5 183t252.5 67.5q136 0 252 -67.5t183.5 -183.5t67.5 -253v-530q0 -209 -147 -355.5t-356 -146.5t-355.5 146.5t-146.5 355.5zM444 504q0 -75 53 -127.5t128 -52.5t127.5 52.5t52.5 127.5v526q0 75 -52.5 127.5t-127.5 52.5t-128 -52 t-53 -126v-528z" />
<glyph unicode="1" horiz-adv-x="731" d="M164 0v1536h403v-1536h-403z" />
<glyph unicode="2" horiz-adv-x="1251" d="M82 1030q0 98 37.5 189.5t104 162t165 112.5t213.5 42q108 0 203 -45t158.5 -117.5t100 -164t36.5 -185.5q0 -71 -23 -142t-46 -106l-23 -35l-293 -415h434v-326h-1063l619 879l28 34l39 78v45q0 63 -52.5 119.5t-129.5 56.5q-74 0 -126 -53t-52 -129h-330z" />
<glyph unicode="3" horiz-adv-x="1185" d="M164 1212v324h940l-385 -547q8 -2 21.5 -6t52.5 -22t74.5 -40.5t78.5 -63t74 -88.5t52.5 -119t21.5 -152q0 -111 -43.5 -206.5t-114 -158t-157 -98t-173.5 -35.5q-65 0 -126.5 15t-104 35.5t-75.5 42.5t-48.5 36t-15.5 16q0 1 57 59.5t114.5 116t57.5 56.5q0 -3 13.5 -15 t48.5 -26t79 -14q71 0 118.5 53.5t47.5 120.5q0 71 -45.5 128.5t-122.5 57.5q-48 0 -83 -14t-45 -28l-11 -13l-229 231l245 354h-317z" />
<glyph unicode="4" horiz-adv-x="1331" d="M10 326v327l619 883h407v-885h283v-325h-283v-326h-323v326h-703zM406 651h307v439z" />
<glyph unicode="5" horiz-adv-x="1331" d="M164 502v10h321q0 -75 53 -126.5t128 -51.5q74 0 126 52.5t52 127.5q0 74 -52 126t-126 52h-502v844h969v-326h-646v-206h179q136 0 251.5 -67.5t182.5 -183t67 -251.5t-67 -251.5t-182.5 -183t-251.5 -67.5t-251.5 67.5t-183 183t-67.5 251.5z" />
<glyph unicode="6" horiz-adv-x="1175" d="M82 506q0 143 78 274l438 756h377l-307 -530q181 -29 303.5 -171.5t122.5 -328.5q0 -209 -148.5 -357.5t-357.5 -148.5t-357.5 148.5t-148.5 357.5zM408 506q0 -75 52.5 -127.5t127.5 -52.5q74 0 127 52.5t53 127.5q0 74 -53 127t-127 53q-75 0 -127.5 -53t-52.5 -127z " />
<glyph unicode="7" horiz-adv-x="1331" d="M70 1208v328h1187v-330l-696 -1206h-373l699 1208h-817z" />
<glyph unicode="8" horiz-adv-x="1169" d="M82 502q0 104 40 198t111 162q-75 112 -75 246q0 177 124.5 302.5t301.5 125.5t302.5 -125.5t125.5 -302.5q0 -135 -78 -246q72 -69 112.5 -162.5t40.5 -197.5q0 -209 -147 -355.5t-356 -146.5t-355.5 146.5t-146.5 355.5zM406 502q0 -74 52 -126t126 -52t127 52.5 t53 125.5q0 72 -51 124.5t-123 55.5h-15q-70 -3 -119.5 -55.5t-49.5 -124.5zM483 1106q0 -43 29 -71.5t72 -28.5t72.5 28.5t29.5 71.5t-29.5 72.5t-72.5 29.5t-72 -29.5t-29 -72.5z" />
<glyph unicode="9" horiz-adv-x="1331" d="M166 1034q0 136 67.5 251.5t183 183t251.5 67.5t251.5 -67.5t182.5 -183t67 -251.5q0 -138 -71 -258l-447 -776h-372l309 539q-180 28 -301 168.5t-121 326.5zM487 1028q0 -76 52 -128t129 -52q75 0 127.5 52t52.5 128q0 75 -52.5 127.5t-127.5 52.5q-76 0 -128.5 -52.5 t-52.5 -127.5z" />
<glyph unicode=":" horiz-adv-x="495" d="M84 164q0 68 48 116t116 48t116 -48t48 -116t-48 -116t-116 -48t-116 48t-48 116zM84 647q0 67 48 115.5t116 48.5t116 -48.5t48 -115.5t-48 -115.5t-116 -48.5t-116 48.5t-48 115.5z" />
<glyph unicode=";" horiz-adv-x="495" d="M84 158q0 66 48 116t114 50t114 -50t48 -116v-20.5t-7.5 -52.5t-22.5 -76.5t-49.5 -86.5t-82.5 -90v168q-66 0 -114 46t-48 112zM84 647q0 67 48 115.5t116 48.5t116 -48.5t48 -115.5t-48 -115.5t-116 -48.5t-116 48.5t-48 115.5z" />
<glyph unicode="=" horiz-adv-x="1011" d="M102 201v321h807v-321h-807zM102 846v323h807v-323h-807z" />
<glyph unicode="?" horiz-adv-x="1208" d="M102 1022v12q0 136 67.5 251.5t183 183t251.5 67.5t251.5 -67.5t183 -183t67.5 -251.5q0 -169 -100.5 -302t-257.5 -179v-160h-324v447h180q75 0 126.5 52.5t51.5 129.5q0 75 -51.5 126.5t-126.5 51.5t-126 -49t-54 -121v-8h-322zM422 162q0 69 46.5 114.5t117.5 45.5 q69 0 114 -45.5t45 -114.5q0 -70 -45 -116t-114 -46q-71 0 -117.5 46t-46.5 116z" />
<glyph unicode="@" horiz-adv-x="2340" d="M102 465q0 215 83.5 412t225.5 340t338 228t412 85q223 0 423.5 -85t343 -228t226.5 -339.5t84 -412.5q0 -219 -84 -414t-235 -340l-498 340q-120 -71 -254 -71q-101 0 -192 39t-156.5 104.5t-104 157t-38.5 192.5q0 204 143 347t348 143q147 0 256 -72v49h285v-733 l127 -78q84 150 84 336q0 151 -59.5 288t-160.5 236.5t-242 158t-296 58.5q-152 0 -289 -58.5t-235.5 -158t-156.5 -236.5t-58 -288q0 -153 58.5 -289.5t158 -234.5t238 -155.5t292.5 -57.5v-324q-148 0 -287.5 38.5t-256 107t-214.5 167t-166 215t-105.5 253t-37.5 280.5z M969 473q0 -85 58 -145t142 -60t142.5 60t58.5 145q0 84 -58.5 144.5t-142.5 60.5t-142 -60.5t-58 -144.5z" />
<glyph unicode="A" d="M41 0l717 1536h180l723 -1536h-404l-94 201h-628l-93 -201h-401zM692 541h314l-156 338z" />
<glyph unicode="B" horiz-adv-x="1474" d="M174 0v1536h678q121 0 226 -62.5t167 -168t62 -226.5q0 -148 -99 -276q80 -65 127 -157.5t47 -194.5q0 -120 -61 -224t-165 -165.5t-224 -61.5h-758zM578 332h270q56 0 94.5 39t38.5 94t-40 94t-93 39h-270v-266zM578 936h194q56 0 94.5 39t38.5 94t-38.5 94t-94.5 39 h-194v-266z" />
<glyph unicode="C" horiz-adv-x="1507" d="M102 768q0 209 103 385.5t279.5 279.5t385.5 103q156 0 295.5 -58.5t245.5 -164.5l-283 -285q-103 100 -258 100q-157 0 -258.5 -101.5t-101.5 -258.5t101.5 -258.5t258.5 -101.5q161 0 258 102l287 -283q-107 -107 -251.5 -167t-293.5 -60q-209 0 -385.5 103 t-279.5 279.5t-103 385.5z" />
<glyph unicode="D" horiz-adv-x="1613" d="M174 0v1536h569q209 0 385.5 -103t279.5 -279.5t103 -385.5t-103 -385.5t-279.5 -279.5t-385.5 -103h-569zM575 397h170q151 0 258 107t107 258q0 149 -107 255.5t-258 106.5h-170v-727z" />
<glyph unicode="E" horiz-adv-x="1261" d="M174 0v1536h954v-334h-550v-250h487v-340h-487v-282h550v-330h-954z" />
<glyph unicode="F" horiz-adv-x="1269" d="M174 0v1536h963v-332h-559v-250h493v-342h-493v-612h-404z" />
<glyph unicode="G" horiz-adv-x="1728" d="M102 768q0 209 102.5 385.5t279 279.5t384.5 103q155 0 294.5 -59t246.5 -164l-285 -283q-111 103 -256 103q-148 0 -255 -105t-107 -260q0 -102 51.5 -187t134 -131.5t176.5 -46.5q90 0 169.5 41t127.5 111h-297v270h768v-57q0 -209 -103 -385.5t-279.5 -279.5 t-385.5 -103q-208 0 -384.5 103t-279 279.5t-102.5 385.5z" />
<glyph unicode="H" horiz-adv-x="1642" d="M174 0v1536h404v-547h487v547h403v-1536h-403v586h-487v-586h-404z" />
<glyph unicode="I" horiz-adv-x="751" d="M174 0v1536h404v-1536h-404z" />
<glyph unicode="J" horiz-adv-x="1153" d="M41 166l283 285q53 -50 110 -50q72 0 117 45.5t45 120.5v969h403v-944q0 -129 -44 -240.5t-118.5 -188t-175.5 -120t-212 -43.5q-117 0 -224 45.5t-184 120.5z" />
<glyph unicode="K" horiz-adv-x="1753" d="M174 0v1536h404v-586l589 586h566l-775 -772l762 -764h-577l-469 473l-96 -98v-375h-404z" />
<glyph unicode="L" horiz-adv-x="1263" d="M174 0v1536h404v-1130h552v-406h-956z" />
<glyph unicode="M" horiz-adv-x="1923" d="M154 0v1536h182l627 -569l624 569h182v-1536h-405v788l-401 -366l-404 364v-786h-405z" />
<glyph unicode="N" horiz-adv-x="1601" d="M154 0v1536h163l727 -725v725h404v-1536h-166l-725 727v-727h-403z" />
<glyph unicode="O" horiz-adv-x="1738" d="M102 766q0 209 102.5 386t279 280.5t384.5 103.5t385 -103.5t280 -280.5t103 -386q0 -208 -103 -384.5t-279.5 -279t-385.5 -102.5t-385 102.5t-278.5 278.5t-102.5 385zM504 768q0 -151 107 -259t257 -108q152 0 259.5 108t107.5 259q0 152 -107.5 259.5t-259.5 107.5 q-151 0 -257.5 -107.5t-106.5 -259.5z" />
<glyph unicode="P" horiz-adv-x="1447" d="M174 0v1536h647q153 0 283 -76t206 -206t76 -283q0 -114 -44.5 -218t-119.5 -179.5t-178 -120.5t-215 -45h-251v-408h-404zM578 756h249q93 0 157.5 63.5t64.5 155.5t-65 156.5t-157 64.5h-249v-440z" />
<glyph unicode="Q" horiz-adv-x="1740" d="M102 768q0 158 55.5 298.5t153.5 244.5t243 164.5t316 60.5q218 0 395 -103.5t275 -279t98 -385.5q0 -196 -102 -371l102 -104v-293h-270l-108 109q-181 -109 -404 -109q-155 0 -294.5 61t-240.5 163.5t-160 245t-59 298.5zM510 766q0 -148 104.5 -254t255.5 -106 q44 0 86 10l-188 186l281 277l180 -183q8 46 8 70q0 155 -105 261t-262 106q-153 0 -256.5 -106.5t-103.5 -260.5z" />
<glyph unicode="R" horiz-adv-x="1591" d="M174 0v1536h647q153 0 283 -76t206 -206t76 -283q0 -121 -48.5 -228.5t-133.5 -185.5l326 -557h-465l-238 408h-249v-408h-404zM578 756h249q93 0 157.5 63.5t64.5 155.5t-65 156.5t-157 64.5h-249v-440z" />
<glyph unicode="S" horiz-adv-x="1277" d="M61 469h410q0 -50 42 -84.5t108 -34.5q63 0 104 33t41 86q0 55 -43.5 88t-106.5 33q-147 0 -274 63t-203 172.5t-76 237.5q0 97 42 184t114.5 151t177 101t224.5 37q113 0 216 -37t177 -100t118 -150.5t44 -183.5h-408q0 48 -42.5 83.5t-104.5 35.5q-66 0 -107 -32.5 t-41 -86.5t41 -87.5t107 -33.5q233 0 394 -138.5t161 -334.5q0 -97 -43 -184t-116 -150t-175 -100t-215 -37q-123 0 -229.5 38t-180 102.5t-115 150t-41.5 178.5z" />
<glyph unicode="T" horiz-adv-x="1415" d="M102 1137v401h1211v-401h-408v-1137h-403v1137h-400z" />
<glyph unicode="U" horiz-adv-x="1519" d="M154 606v930h405v-924q0 -83 59 -141.5t142 -58.5t142 58.5t59 141.5v924h405v-930q0 -166 -81.5 -305.5t-220.5 -220t-304 -80.5q-166 0 -305.5 80.5t-220 220t-80.5 305.5z" />
<glyph unicode="V" horiz-adv-x="1656" d="M20 1538h406l403 -874l406 874h401l-714 -1538h-185z" />
<glyph unicode="W" horiz-adv-x="2164" d="M20 1536h410l299 -915l150 452h407l150 -450l299 913h409l-506 -1536h-407l-148 455l-151 -455h-408z" />
<glyph unicode="X" horiz-adv-x="1654" d="M20 0l560 801l-512 735h491l268 -383l267 383h491l-512 -735l561 -801h-491l-316 451l-315 -451h-492z" />
<glyph unicode="Y" horiz-adv-x="1562" d="M20 1536h465l295 -512l297 512h465l-561 -971v-565h-399v565z" />
<glyph unicode="Z" horiz-adv-x="1454" d="M49 1130v406h1354l-653 -1133h655v-403h-1354l654 1130h-656z" />
<glyph unicode="[" horiz-adv-x="567" d="M41 0v1536h485v-319h-161v-889h161v-328h-485z" />
<glyph unicode="\" horiz-adv-x="1150" d="M41 1536h360l709 -1536h-358z" />
<glyph unicode="]" horiz-adv-x="567" d="M41 0v328h162v889h-162v319h485v-1536h-485z" />
<glyph unicode="_" horiz-adv-x="1011" d="M102 0h807v-324h-807v324z" />
<glyph unicode="`" horiz-adv-x="491" d="M41 1974h281l129 -282h-197z" />
<glyph unicode="a" horiz-adv-x="1290" d="M92 471q0 134 66.5 247t180.5 179t249 66q132 0 246 -66v45h333v-942h-333v45q-112 -65 -246 -65q-135 0 -249 65t-180.5 178t-66.5 248zM406 467q0 -76 54 -130t128 -54q75 0 125.5 53.5t50.5 130.5q0 76 -51 129t-125 53t-128 -53.5t-54 -128.5z" />
<glyph unicode="b" horiz-adv-x="1298" d="M143 0v1538h328v-645q117 70 244 70q133 0 245.5 -62.5t179 -175t66.5 -248.5q0 -109 -41.5 -203.5t-109.5 -158t-157 -99.5t-183 -36q-121 0 -244 77v-57h-328zM530 471q0 -76 54 -130t133 -54q75 0 127.5 54.5t52.5 129.5q0 74 -53 128t-127 54q-80 0 -133.5 -53.5 t-53.5 -128.5z" />
<glyph unicode="c" horiz-adv-x="1003" d="M92 469q0 134 66 247.5t179.5 180t246.5 66.5q199 0 348 -146l-217 -221q-52 55 -131 55q-75 0 -129 -53.5t-54 -128.5t54 -129.5t129 -54.5q81 0 127 55l221 -217q-146 -143 -348 -143q-133 0 -246 64.5t-179.5 177.5t-66.5 247z" />
<glyph unicode="d" horiz-adv-x="1298" d="M92 477q0 136 67 248.5t179.5 175t245.5 62.5q126 0 243 -70v645h328v-1538h-328v57q-123 -77 -243 -77q-94 0 -183 36t-157.5 99.5t-110 158t-41.5 203.5zM401 471q0 -75 53 -129.5t128 -54.5q79 0 132.5 54t53.5 130q0 75 -53 128.5t-133 53.5q-75 0 -128 -54t-53 -128 z" />
<glyph unicode="e" horiz-adv-x="1144" d="M92 471q0 204 144.5 348t349.5 144q135 0 247.5 -66t176 -179t63.5 -247q0 -54 -8 -98h-684q28 -57 83.5 -92t121.5 -35q60 0 108 28l195 -194q-141 -100 -303 -100q-135 0 -248.5 65t-179.5 178t-66 248zM379 565h403q-25 58 -77.5 93.5t-118.5 35.5q-68 0 -123.5 -35.5 t-83.5 -93.5z" />
<glyph unicode="f" horiz-adv-x="774" d="M61 694v248h156v55q1 233 136 379t358 160v-326q-166 -18 -166 -217v-51h168v-248h-168v-694h-328v694h-156z" />
<glyph unicode="g" horiz-adv-x="1310" d="M92 471q0 134 66.5 247t180.5 179t249 66q132 0 246 -66v45h333v-1028q0 -147 -65.5 -268t-188.5 -192.5t-280 -71.5h-223v329h229q95 0 145 54t50 149v131q-112 -65 -246 -65q-135 0 -249 65t-180.5 178t-66.5 248zM406 467q0 -76 54 -130t128 -54q75 0 125.5 53.5 t50.5 130.5q0 76 -51 129t-125 53t-128 -53.5t-54 -128.5z" />
<glyph unicode="h" horiz-adv-x="1255" d="M143 0v1569h328v-647q68 41 172 41q100 0 189 -37.5t156 -105t106 -167.5t39 -219v-434h-308v444q0 91 -49 146t-133 55q-75 0 -123.5 -49t-48.5 -129v-467h-328z" />
<glyph unicode="i" horiz-adv-x="614" d="M143 0v942h328v-942h-328zM166 1190q0 62 44 106.5t107 44.5q61 0 105.5 -44.5t44.5 -106.5t-44.5 -107t-105.5 -45q-63 0 -107 45t-44 107z" />
<glyph unicode="j" horiz-adv-x="671" d="M20 -274q181 9 181 215v1001h327v-1008q-2 -235 -140.5 -382t-367.5 -154v328zM209 1190q0 62 44 106.5t107 44.5q61 0 105.5 -44.5t44.5 -106.5t-44.5 -107t-105.5 -45q-63 0 -107 45t-44 107z" />
<glyph unicode="k" horiz-adv-x="1216" d="M143 0v1536h328v-854l258 262h426l-481 -465l479 -479h-410l-272 274v-274h-328z" />
<glyph unicode="l" horiz-adv-x="614" d="M143 0v1536h328v-1536h-328z" />
<glyph unicode="m" horiz-adv-x="1783" d="M143 0v942h328v-6q69 27 154 27q163 0 290 -111q127 111 306 111q110 0 211 -58.5t165 -163.5t64 -229v-512h-309v512q0 61 -41 102t-103 41q-58 0 -98.5 -41t-40.5 -102v-2v-510h-311v489q0 82 -37.5 124t-104.5 42q-63 0 -104 -45t-41 -121v-489h-328z" />
<glyph unicode="n" horiz-adv-x="1187" d="M143 0v942h328v-6q78 29 150 29q116 0 217.5 -58t164 -163t62.5 -232v-512h-307v512q0 64 -38.5 104.5t-92.5 40.5q-68 0 -112 -41.5t-44 -103.5v-512h-328z" />
<glyph unicode="o" horiz-adv-x="1171" d="M92 471q0 133 66.5 246.5t180 179.5t247.5 66q100 0 191.5 -39t157.5 -105.5t105 -157.5t39 -190q0 -134 -66 -247t-179.5 -178.5t-247.5 -65.5t-247.5 65.5t-180 178.5t-66.5 247zM401 471q0 -76 54 -130t133 -54q75 0 127.5 54.5t52.5 129.5q0 74 -53 128t-127 54 q-80 0 -133.5 -53.5t-53.5 -128.5z" />
<glyph unicode="p" horiz-adv-x="1298" d="M143 -596v1538h328v-57q125 78 244 78q127 0 238.5 -61t182 -177t70.5 -260q0 -136 -66.5 -248t-179 -174.5t-245.5 -62.5q-128 0 -244 69v-645h-328zM530 471q0 -75 53.5 -128.5t133.5 -53.5q74 0 127 54t53 128q0 75 -52.5 129.5t-127.5 54.5q-79 0 -133 -54t-54 -130z " />
<glyph unicode="q" horiz-adv-x="1265" d="M92 465q0 109 41.5 203.5t110 158t157.5 100t183 36.5q118 0 243 -78v57h328v-1538h-328v645q-116 -69 -243 -69q-133 0 -245.5 62.5t-179.5 174.5t-67 248zM401 471q0 -74 53 -128t128 -54q80 0 133 53.5t53 128.5q0 76 -53.5 130t-132.5 54q-75 0 -128 -54.5 t-53 -129.5z" />
<glyph unicode="r" horiz-adv-x="1021" d="M143 0v942h328v-14q90 35 186 35q199 0 344 -148l-219 -213q-56 53 -135 53q-73 0 -124.5 -52t-51.5 -130v-473h-328z" />
<glyph unicode="s" horiz-adv-x="856" d="M61 281h271q0 -33 28 -54.5t74 -21.5q44 0 69 21t25 55q0 35 -26.5 55t-73.5 20q-91 0 -173.5 35.5t-137 105.5t-54.5 158q0 139 110 223.5t255 84.5q92 0 176.5 -39t138.5 -110t54 -155h-269q0 29 -26 51.5t-74 22.5q-39 0 -66.5 -20t-27.5 -54q0 -33 29.5 -54t74.5 -21 q38 0 82.5 -9t94.5 -32.5t89.5 -57t66 -89t26.5 -122.5q0 -85 -55 -154t-138 -104.5t-172 -35.5q-164 0 -267.5 90.5t-103.5 210.5z" />
<glyph unicode="t" horiz-adv-x="774" d="M41 694v248h162v283h327v-283h162v-248h-162v-694h-327v694h-162z" />
<glyph unicode="u" horiz-adv-x="1187" d="M123 432v512h307v-512q0 -64 38.5 -104.5t92.5 -40.5q68 0 112 41.5t44 103.5v512h327v-942h-327v6q-75 -28 -150 -28q-116 0 -217.5 57.5t-164 162.5t-62.5 232z" />
<glyph unicode="v" horiz-adv-x="1132" d="M10 942h361l196 -420l199 420h356l-436 -942h-231z" />
<glyph unicode="w" horiz-adv-x="1658" d="M10 942h367l194 -420l195 420h131l195 -420l194 420h363l-437 -942h-235l-146 307l-141 -307h-235z" />
<glyph unicode="x" horiz-adv-x="1132" d="M31 942h401l135 -190l133 190h402l-334 -477l326 -465h-400l-127 180l-127 -180h-401l328 467z" />
<glyph unicode="y" horiz-adv-x="1193" d="M123 436v506h309v-506q0 -63 39.5 -103t93.5 -40q68 0 113 41t45 102v506h328v-1028q0 -147 -65.5 -268t-189 -192.5t-280.5 -71.5h-223v329h229q96 0 148.5 54t52.5 149v92q-84 -26 -154 -26q-116 0 -218 58t-165 164t-63 234z" />
<glyph unicode="z" horiz-adv-x="1185" d="M61 612v330h1063l-426 -610h392v-332h-1018l428 612h-439z" />
<glyph unicode="&#xa1;" horiz-adv-x="528" d="M102 0v1126h324v-1126h-324zM102 1374q0 68 47 115t115 47t115 -47t47 -115t-47.5 -116t-114.5 -48t-114.5 48t-47.5 116z" />
<glyph unicode="&#xa8;" horiz-adv-x="878" d="M41 1812q0 66 48.5 114t115.5 48q66 0 114 -48t48 -114q0 -67 -48 -115t-114 -48q-68 0 -116 48t-48 115zM512 1812q0 66 48.5 114t115.5 48q66 0 114 -48t48 -114q0 -67 -48 -115t-114 -48q-68 0 -116 48t-48 115z" />
<glyph unicode="&#xad;" horiz-adv-x="1011" d="M102 700v324h807v-324h-807z" />
<glyph unicode="&#xaf;" horiz-adv-x="839" d="M41 1669v305h758v-305h-758z" />
<glyph unicode="&#xb4;" horiz-adv-x="491" d="M41 1692l129 305h281l-213 -305h-197z" />
<glyph unicode="&#xb8;" horiz-adv-x="471" d="M41 -227l190 254h199l-117 -254h-272z" />
<glyph unicode="&#xbf;" horiz-adv-x="1208" d="M102 502q0 168 101 301.5t258 179.5v160h323v-447h-180q-75 0 -126.5 -52.5t-51.5 -129.5q0 -75 51.5 -126.5t126.5 -51.5t126 49t54 121v8h322v-12q0 -136 -67.5 -251.5t-183 -183t-251.5 -67.5t-251.5 67.5t-183 183t-67.5 251.5zM463 1374q0 70 45.5 116t114.5 46 q71 0 117 -46t46 -116q0 -69 -46.5 -114.5t-116.5 -45.5q-69 0 -114.5 45.5t-45.5 114.5z" />
<glyph unicode="&#xc0;" d="M41 0l717 1536h180l723 -1536h-404l-94 201h-628l-93 -201h-401zM518 1974h281l129 -282h-197zM692 541h314l-156 338z" />
<glyph unicode="&#xc1;" d="M41 0l717 1536h180l723 -1536h-404l-94 201h-628l-93 -201h-401zM692 541h314l-156 338zM745 1692l129 305h281l-213 -305h-197z" />
<glyph unicode="&#xc2;" d="M41 0l717 1536h180l723 -1536h-404l-94 201h-628l-93 -201h-401zM524 1702l135 289h375l131 -289h-202l-117 158l-117 -158h-205zM692 541h314l-156 338z" />
<glyph unicode="&#xc3;" d="M41 0l717 1536h180l723 -1536h-404l-94 201h-628l-93 -201h-401zM438 1698q33 141 91.5 208t160.5 68q58 1 136 -38.5t114 -39.5q68 0 107 93l178 -50q-32 -146 -90.5 -209t-159.5 -63q-52 0 -97 19t-82.5 37.5t-72.5 17.5t-56 -22.5t-42 -71.5zM692 541h314l-156 338z " />
<glyph unicode="&#xc4;" d="M41 0l717 1536h180l723 -1536h-404l-94 201h-628l-93 -201h-401zM457 1812q0 66 48.5 114t115.5 48q66 0 113.5 -48t47.5 -114q0 -67 -47.5 -115t-113.5 -48q-68 0 -116 48t-48 115zM692 541h314l-156 338zM928 1812q0 66 48.5 114t115.5 48q66 0 113.5 -48t47.5 -114 q0 -67 -47.5 -115t-113.5 -48q-68 0 -116 48t-48 115z" />
<glyph unicode="&#xc5;" d="M41 0l717 1536h180l723 -1536h-404l-94 201h-628l-93 -201h-401zM637 1790q0 85 60.5 146t146.5 61q85 0 145 -61t60 -146t-60 -146t-145 -61q-86 0 -146.5 61t-60.5 146zM692 541h314l-156 338zM784 1790q0 -25 17.5 -42t42.5 -17q23 0 40 17t17 42t-17 42t-40 17 q-25 0 -42.5 -17t-17.5 -42z" />
<glyph unicode="&#xc6;" horiz-adv-x="2113" d="M41 0l897 1536h1042v-334h-550v-250h487v-340h-487v-282h550v-330h-954v201h-471l-111 -201h-403zM748 541h278v481z" />
<glyph unicode="&#xc7;" horiz-adv-x="1507" d="M102 768q0 209 103 385.5t279.5 279.5t385.5 103q156 0 295.5 -58.5t245.5 -164.5l-283 -285q-103 100 -258 100q-157 0 -258.5 -101.5t-101.5 -258.5t101.5 -258.5t258.5 -101.5q161 0 258 102l287 -283q-101 -101 -235.5 -160t-274.5 -67l-110 -238h-273l191 254 q-173 36 -312 143t-219 267t-80 342z" />
<glyph unicode="&#xc8;" horiz-adv-x="1261" d="M174 0v1536h954v-334h-550v-250h487v-340h-487v-282h550v-330h-954zM340 1974h281l129 -282h-197z" />
<glyph unicode="&#xc9;" horiz-adv-x="1261" d="M174 0v1536h954v-334h-550v-250h487v-340h-487v-282h550v-330h-954zM567 1692l129 305h281l-213 -305h-197z" />
<glyph unicode="&#xca;" horiz-adv-x="1261" d="M174 0v1536h954v-334h-550v-250h487v-340h-487v-282h550v-330h-954zM346 1702l135 289h375l131 -289h-203l-116 158l-117 -158h-205z" />
<glyph unicode="&#xcb;" horiz-adv-x="1261" d="M174 0v1536h954v-334h-550v-250h487v-340h-487v-282h550v-330h-954zM279 1812q0 66 48 114t115 48q66 0 114 -48t48 -114q0 -67 -48 -115t-114 -48q-68 0 -115.5 47.5t-47.5 115.5zM750 1812q0 66 48 114t115 48q66 0 114 -48t48 -114q0 -67 -48 -115t-114 -48 q-67 0 -115 47.5t-48 115.5z" />
<glyph unicode="&#xcc;" horiz-adv-x="751" d="M47 1974h281l129 -282h-197zM174 0v1536h404v-1536h-404z" />
<glyph unicode="&#xcd;" horiz-adv-x="751" d="M174 0v1536h404v-1536h-404zM274 1692l129 305h281l-213 -305h-197z" />
<glyph unicode="&#xce;" horiz-adv-x="751" d="M53 1702l135 289h375l131 -289h-202l-117 158l-117 -158h-205zM174 0v1536h404v-1536h-404z" />
<glyph unicode="&#xcf;" horiz-adv-x="751" d="M-14 1812q0 66 48.5 114t115.5 48q66 0 113.5 -48t47.5 -114q0 -67 -47.5 -115t-113.5 -48q-68 0 -116 48t-48 115zM174 0v1536h404v-1536h-404zM457 1812q0 66 48.5 114t115.5 48q66 0 113.5 -48t47.5 -114q0 -67 -47.5 -115t-113.5 -48q-68 0 -116 48t-48 115z" />
<glyph unicode="&#xd0;" horiz-adv-x="1648" d="M10 670v200h199v666h569q209 0 385.5 -103t279.5 -279.5t103 -385.5t-103 -385.5t-279.5 -279.5t-385.5 -103h-569v670h-199zM610 397h170q151 0 258 107t107 258q0 149 -107 255.5t-258 106.5h-170v-254h205v-200h-205v-273z" />
<glyph unicode="&#xd1;" horiz-adv-x="1601" d="M154 0v1536h163l727 -725v725h404v-1536h-166l-725 727v-727h-403zM391 1698q33 141 91.5 208t160.5 68q58 1 136 -38.5t114 -39.5q67 0 106 93l179 -50q-32 -146 -90.5 -209t-159.5 -63q-52 0 -97 19t-82.5 37.5t-72.5 17.5t-56 -22.5t-42 -71.5z" />
<glyph unicode="&#xd2;" horiz-adv-x="1738" d="M102 766q0 209 102.5 386t279 280.5t384.5 103.5t385 -103.5t280 -280.5t103 -386q0 -208 -103 -384.5t-279.5 -279t-385.5 -102.5t-385 102.5t-278.5 278.5t-102.5 385zM504 768q0 -151 107 -259t257 -108q152 0 259.5 108t107.5 259q0 152 -107.5 259.5t-259.5 107.5 q-151 0 -257.5 -107.5t-106.5 -259.5zM541 1974h280l129 -282h-196z" />
<glyph unicode="&#xd3;" horiz-adv-x="1738" d="M102 766q0 209 102.5 386t279 280.5t384.5 103.5t385 -103.5t280 -280.5t103 -386q0 -208 -103 -384.5t-279.5 -279t-385.5 -102.5t-385 102.5t-278.5 278.5t-102.5 385zM504 768q0 -151 107 -259t257 -108q152 0 259.5 108t107.5 259q0 152 -107.5 259.5t-259.5 107.5 q-151 0 -257.5 -107.5t-106.5 -259.5zM768 1692l129 305h281l-213 -305h-197z" />
<glyph unicode="&#xd4;" horiz-adv-x="1738" d="M102 766q0 209 102.5 386t279 280.5t384.5 103.5t385 -103.5t280 -280.5t103 -386q0 -208 -103 -384.5t-279.5 -279t-385.5 -102.5t-385 102.5t-278.5 278.5t-102.5 385zM504 768q0 -151 107 -259t257 -108q152 0 259.5 108t107.5 259q0 152 -107.5 259.5t-259.5 107.5 q-151 0 -257.5 -107.5t-106.5 -259.5zM547 1702l135 289h375l131 -289h-203l-117 158l-116 -158h-205z" />
<glyph unicode="&#xd5;" horiz-adv-x="1738" d="M102 766q0 209 102.5 386t279 280.5t384.5 103.5t385 -103.5t280 -280.5t103 -386q0 -208 -103 -384.5t-279.5 -279t-385.5 -102.5t-385 102.5t-278.5 278.5t-102.5 385zM461 1698q33 141 91.5 208t160.5 68q58 1 136 -38.5t114 -39.5q67 0 106 93l178 -50 q-32 -146 -90.5 -209t-159.5 -63q-52 0 -97 19t-82.5 37.5t-72.5 17.5t-56 -22.5t-42 -71.5zM504 768q0 -151 107 -259t257 -108q152 0 259.5 108t107.5 259q0 152 -107.5 259.5t-259.5 107.5q-151 0 -257.5 -107.5t-106.5 -259.5z" />
<glyph unicode="&#xd6;" horiz-adv-x="1738" d="M102 766q0 209 102.5 386t279 280.5t384.5 103.5t385 -103.5t280 -280.5t103 -386q0 -208 -103 -384.5t-279.5 -279t-385.5 -102.5t-385 102.5t-278.5 278.5t-102.5 385zM479 1812q0 66 48.5 114t115.5 48q66 0 114 -48t48 -114q0 -67 -48 -115t-114 -48q-68 0 -116 48 t-48 115zM504 768q0 -151 107 -259t257 -108q152 0 259.5 108t107.5 259q0 152 -107.5 259.5t-259.5 107.5q-151 0 -257.5 -107.5t-106.5 -259.5zM950 1812q0 66 48.5 114t115.5 48q66 0 114 -48t48 -114q0 -67 -48 -115t-114 -48q-68 0 -116 48t-48 115z" />
<glyph unicode="&#xd8;" horiz-adv-x="1890" d="M102 143l191 193q-131 196 -131 430q0 209 102.5 386t279 280.5t384.5 103.5q235 0 428 -131l227 227l205 -207l-225 -225q133 -198 133 -434q0 -208 -103 -384.5t-279.5 -279t-385.5 -102.5q-234 0 -430 131l-187 -186zM563 768q0 -66 27 -135l473 477q-64 25 -135 25 q-151 0 -258 -107.5t-107 -259.5zM793 428q73 -27 135 -27q152 0 259 108t107 259q0 67 -26 137z" />
<glyph unicode="&#xd9;" horiz-adv-x="1519" d="M154 606v930h405v-924q0 -83 59 -141.5t142 -58.5t142 58.5t59 141.5v924h405v-930q0 -166 -81.5 -305.5t-220.5 -220t-304 -80.5q-166 0 -305.5 80.5t-220 220t-80.5 305.5zM430 1974h281l129 -282h-197z" />
<glyph unicode="&#xda;" horiz-adv-x="1519" d="M154 606v930h405v-924q0 -83 59 -141.5t142 -58.5t142 58.5t59 141.5v924h405v-930q0 -166 -81.5 -305.5t-220.5 -220t-304 -80.5q-166 0 -305.5 80.5t-220 220t-80.5 305.5zM657 1692l129 305h281l-213 -305h-197z" />
<glyph unicode="&#xdb;" horiz-adv-x="1519" d="M154 606v930h405v-924q0 -83 59 -141.5t142 -58.5t142 58.5t59 141.5v924h405v-930q0 -166 -81.5 -305.5t-220.5 -220t-304 -80.5q-166 0 -305.5 80.5t-220 220t-80.5 305.5zM436 1702l135 289h375l131 -289h-203l-116 158l-117 -158h-205z" />
<glyph unicode="&#xdc;" horiz-adv-x="1519" d="M154 606v930h405v-924q0 -83 59 -141.5t142 -58.5t142 58.5t59 141.5v924h405v-930q0 -166 -81.5 -305.5t-220.5 -220t-304 -80.5q-166 0 -305.5 80.5t-220 220t-80.5 305.5zM369 1812q0 66 48 114t115 48q66 0 114 -48t48 -114q0 -67 -48 -115t-114 -48 q-68 0 -115.5 47.5t-47.5 115.5zM840 1812q0 66 48.5 114t115.5 48q66 0 113.5 -48t47.5 -114q0 -67 -47.5 -115t-113.5 -48q-68 0 -116 48t-48 115z" />
<glyph unicode="&#xdd;" horiz-adv-x="1562" d="M20 1536h465l295 -512l297 512h465l-561 -971v-565h-399v565zM678 1692l129 305h280l-213 -305h-196z" />
<glyph unicode="&#xe0;" horiz-adv-x="1290" d="M92 471q0 134 66.5 247t180.5 179t249 66q132 0 246 -66v45h333v-942h-333v45q-112 -65 -246 -65q-135 0 -249 65t-180.5 178t-66.5 248zM281 1403h280l129 -283h-196zM406 467q0 -76 54 -130t128 -54q75 0 125.5 53.5t50.5 130.5q0 76 -51 129t-125 53t-128 -53.5 t-54 -128.5z" />
<glyph unicode="&#xe1;" horiz-adv-x="1290" d="M92 471q0 134 66.5 247t180.5 179t249 66q132 0 246 -66v45h333v-942h-333v45q-112 -65 -246 -65q-135 0 -249 65t-180.5 178t-66.5 248zM406 467q0 -76 54 -130t128 -54q75 0 125.5 53.5t50.5 130.5q0 76 -51 129t-125 53t-128 -53.5t-54 -128.5zM508 1120l129 305h281 l-213 -305h-197z" />
<glyph unicode="&#xe2;" horiz-adv-x="1290" d="M92 471q0 134 66.5 247t180.5 179t249 66q132 0 246 -66v45h333v-942h-333v45q-112 -65 -246 -65q-135 0 -249 65t-180.5 178t-66.5 248zM287 1130l135 289h375l131 -289h-203l-117 158l-116 -158h-205zM406 467q0 -76 54 -130t128 -54q75 0 125.5 53.5t50.5 130.5 q0 76 -51 129t-125 53t-128 -53.5t-54 -128.5z" />
<glyph unicode="&#xe3;" horiz-adv-x="1290" d="M92 471q0 134 66.5 247t180.5 179t249 66q132 0 246 -66v45h333v-942h-333v45q-112 -65 -246 -65q-135 0 -249 65t-180.5 178t-66.5 248zM201 1126q33 141 92 208.5t160 68.5q46 1 91.5 -18.5t85.5 -39.5t72 -20q69 0 107 92l178 -49q-32 -146 -90.5 -209t-159.5 -63 q-52 0 -97 18.5t-82.5 37t-72.5 17.5t-56 -22.5t-42 -71.5zM406 467q0 -76 54 -130t128 -54q75 0 125.5 53.5t50.5 130.5q0 76 -51 129t-125 53t-128 -53.5t-54 -128.5z" />
<glyph unicode="&#xe4;" horiz-adv-x="1290" d="M92 471q0 134 66.5 247t180.5 179t249 66q132 0 246 -66v45h333v-942h-333v45q-112 -65 -246 -65q-135 0 -249 65t-180.5 178t-66.5 248zM219 1241q0 66 48.5 114t115.5 48q66 0 114 -48t48 -114q0 -67 -48 -115.5t-114 -48.5q-67 0 -115.5 48.5t-48.5 115.5zM406 467 q0 -76 54 -130t128 -54q75 0 125.5 53.5t50.5 130.5q0 76 -51 129t-125 53t-128 -53.5t-54 -128.5zM690 1241q0 66 48.5 114t115.5 48q66 0 114 -48t48 -114q0 -67 -48 -115.5t-114 -48.5q-68 0 -116 48.5t-48 115.5z" />
<glyph unicode="&#xe5;" horiz-adv-x="1290" d="M92 471q0 134 66.5 247t180.5 179t249 66q132 0 246 -66v45h333v-942h-333v45q-112 -65 -246 -65q-135 0 -249 65t-180.5 178t-66.5 248zM399 1219q0 85 60.5 145.5t146.5 60.5q85 0 145 -60.5t60 -145.5t-60 -146t-145 -61q-86 0 -146.5 61t-60.5 146zM406 467 q0 -76 54 -130t128 -54q75 0 125.5 53.5t50.5 130.5q0 76 -51 129t-125 53t-128 -53.5t-54 -128.5zM547 1219q0 -25 17 -42.5t42 -17.5q23 0 40.5 17.5t17.5 42.5t-17 42t-41 17q-25 0 -42 -17t-17 -42z" />
<glyph unicode="&#xe6;" horiz-adv-x="1931" d="M92 471q0 134 66.5 247t180.5 179t249 66q132 0 246 -66v45h333v-22q97 43 205 43q135 0 247.5 -66t176.5 -179t64 -247q0 -49 -9 -98h-684q28 -57 83.5 -92t121.5 -35q61 0 109 28l194 -194q-141 -100 -303 -100q-108 0 -205 43v-23h-333v45q-112 -65 -246 -65 q-135 0 -249 65t-180.5 178t-66.5 248zM406 467q0 -76 54 -130t128 -54q75 0 125.5 53.5t50.5 130.5q0 76 -51 129t-125 53t-128 -53.5t-54 -128.5zM1167 565h402q-25 58 -78 93.5t-119 35.5t-120.5 -33t-84.5 -96z" />
<glyph unicode="&#xe7;" horiz-adv-x="1003" d="M92 469q0 134 66 247.5t179.5 180t246.5 66.5q199 0 348 -146l-217 -221q-52 55 -131 55q-75 0 -129 -53.5t-54 -128.5t54 -129.5t129 -54.5q81 0 127 55l221 -217q-102 -98 -232 -131l-106 -230h-272l170 226q-172 33 -286 167.5t-114 313.5z" />
<glyph unicode="&#xe8;" horiz-adv-x="1144" d="M92 471q0 204 144.5 348t349.5 144q135 0 247.5 -66t176 -179t63.5 -247q0 -54 -8 -98h-684q28 -57 83.5 -92t121.5 -35q60 0 108 28l195 -194q-141 -100 -303 -100q-135 0 -248.5 65t-179.5 178t-66 248zM256 1403h281l129 -283h-197zM379 565h403q-25 58 -77.5 93.5 t-118.5 35.5q-68 0 -123.5 -35.5t-83.5 -93.5z" />
<glyph unicode="&#xe9;" horiz-adv-x="1144" d="M92 471q0 204 144.5 348t349.5 144q135 0 247.5 -66t176 -179t63.5 -247q0 -54 -8 -98h-684q28 -57 83.5 -92t121.5 -35q60 0 108 28l195 -194q-141 -100 -303 -100q-135 0 -248.5 65t-179.5 178t-66 248zM379 565h403q-25 58 -77.5 93.5t-118.5 35.5q-68 0 -123.5 -35.5 t-83.5 -93.5zM483 1120l129 305h281l-213 -305h-197z" />
<glyph unicode="&#xea;" horiz-adv-x="1144" d="M92 471q0 204 144.5 348t349.5 144q135 0 247.5 -66t176 -179t63.5 -247q0 -54 -8 -98h-684q28 -57 83.5 -92t121.5 -35q60 0 108 28l195 -194q-141 -100 -303 -100q-135 0 -248.5 65t-179.5 178t-66 248zM262 1130l135 289h375l131 -289h-203l-116 158l-117 -158h-205z M379 565h403q-25 58 -77.5 93.5t-118.5 35.5q-68 0 -123.5 -35.5t-83.5 -93.5z" />
<glyph unicode="&#xeb;" horiz-adv-x="1144" d="M92 471q0 204 144.5 348t349.5 144q135 0 247.5 -66t176 -179t63.5 -247q0 -54 -8 -98h-684q28 -57 83.5 -92t121.5 -35q60 0 108 28l195 -194q-141 -100 -303 -100q-135 0 -248.5 65t-179.5 178t-66 248zM195 1241q0 66 48 114t115 48q66 0 114 -48t48 -114 q0 -67 -48 -115.5t-114 -48.5q-67 0 -115 48t-48 116zM379 565h403q-25 58 -77.5 93.5t-118.5 35.5q-68 0 -123.5 -35.5t-83.5 -93.5zM666 1241q0 66 48 114t115 48q66 0 114 -48t48 -114q0 -67 -48 -115.5t-114 -48.5q-67 0 -115 48t-48 116z" />
<glyph unicode="&#xec;" horiz-adv-x="614" d="M-10 1403h280l129 -283h-196zM143 0v942h328v-942h-328z" />
<glyph unicode="&#xed;" horiz-adv-x="614" d="M143 0v942h328v-942h-328zM217 1120l129 305h281l-213 -305h-197z" />
<glyph unicode="&#xee;" horiz-adv-x="614" d="M-4 1130l135 289h375l131 -289h-203l-117 158l-116 -158h-205zM143 0v942h328v-942h-328z" />
<glyph unicode="&#xef;" horiz-adv-x="614" d="M-72 1241q0 66 48.5 114t115.5 48q66 0 114 -48t48 -114q0 -67 -48 -115.5t-114 -48.5q-68 0 -116 48.5t-48 115.5zM143 0v942h328v-942h-328zM399 1241q0 66 48.5 114t115.5 48q66 0 114 -48t48 -114q0 -67 -48 -115.5t-114 -48.5q-67 0 -115.5 48.5t-48.5 115.5z" />
<glyph unicode="&#xf1;" horiz-adv-x="1187" d="M143 0v942h328v-6q78 29 150 29q116 0 217.5 -58t164 -163t62.5 -232v-512h-307v512q0 64 -38.5 104.5t-92.5 40.5q-68 0 -112 -41.5t-44 -103.5v-512h-328zM209 1126q33 141 92 208.5t160 68.5q58 1 136 -38.5t114 -39.5q68 0 106 92l178 -49q-32 -146 -90.5 -209 t-159.5 -63q-41 0 -78.5 11.5t-61 25.5t-53.5 25.5t-58 10.5q-35 -1 -56.5 -22.5t-42.5 -71.5z" />
<glyph unicode="&#xf2;" horiz-adv-x="1171" d="M92 471q0 133 66.5 246.5t180 179.5t247.5 66q100 0 191.5 -39t157.5 -105.5t105 -157.5t39 -190q0 -134 -66 -247t-179.5 -178.5t-247.5 -65.5t-247.5 65.5t-180 178.5t-66.5 247zM256 1403h281l129 -283h-197zM401 471q0 -76 54 -130t133 -54q75 0 127.5 54.5 t52.5 129.5q0 74 -53 128t-127 54q-80 0 -133.5 -53.5t-53.5 -128.5z" />
<glyph unicode="&#xf3;" horiz-adv-x="1171" d="M92 471q0 133 66.5 246.5t180 179.5t247.5 66q100 0 191.5 -39t157.5 -105.5t105 -157.5t39 -190q0 -134 -66 -247t-179.5 -178.5t-247.5 -65.5t-247.5 65.5t-180 178.5t-66.5 247zM401 471q0 -76 54 -130t133 -54q75 0 127.5 54.5t52.5 129.5q0 74 -53 128t-127 54 q-80 0 -133.5 -53.5t-53.5 -128.5zM483 1120l129 305h281l-213 -305h-197z" />
<glyph unicode="&#xf4;" horiz-adv-x="1171" d="M92 471q0 133 66.5 246.5t180 179.5t247.5 66q100 0 191.5 -39t157.5 -105.5t105 -157.5t39 -190q0 -134 -66 -247t-179.5 -178.5t-247.5 -65.5t-247.5 65.5t-180 178.5t-66.5 247zM262 1130l135 289h375l131 -289h-203l-116 158l-117 -158h-205zM401 471q0 -76 54 -130 t133 -54q75 0 127.5 54.5t52.5 129.5q0 74 -53 128t-127 54q-80 0 -133.5 -53.5t-53.5 -128.5z" />
<glyph unicode="&#xf5;" horiz-adv-x="1171" d="M92 471q0 133 66.5 246.5t180 179.5t247.5 66q100 0 191.5 -39t157.5 -105.5t105 -157.5t39 -190q0 -134 -66 -247t-179.5 -178.5t-247.5 -65.5t-247.5 65.5t-180 178.5t-66.5 247zM176 1126q33 141 92 208.5t160 68.5q58 1 136 -38.5t114 -39.5q68 0 106 92l179 -49 q-32 -146 -90.5 -209t-159.5 -63q-52 0 -97 18.5t-82.5 37t-72.5 17.5t-56.5 -22.5t-42.5 -71.5zM401 471q0 -76 54 -130t133 -54q75 0 127.5 54.5t52.5 129.5q0 74 -53 128t-127 54q-80 0 -133.5 -53.5t-53.5 -128.5z" />
<glyph unicode="&#xf6;" horiz-adv-x="1171" d="M92 471q0 133 66.5 246.5t180 179.5t247.5 66q100 0 191.5 -39t157.5 -105.5t105 -157.5t39 -190q0 -134 -66 -247t-179.5 -178.5t-247.5 -65.5t-247.5 65.5t-180 178.5t-66.5 247zM195 1241q0 66 48 114t115 48q66 0 114 -48t48 -114q0 -67 -48 -115.5t-114 -48.5 q-67 0 -115 48t-48 116zM401 471q0 -76 54 -130t133 -54q75 0 127.5 54.5t52.5 129.5q0 74 -53 128t-127 54q-80 0 -133.5 -53.5t-53.5 -128.5zM666 1241q0 66 48 114t115 48q66 0 114 -48t48 -114q0 -67 -48 -115.5t-114 -48.5q-67 0 -115 48t-48 116z" />
<glyph unicode="&#xf8;" horiz-adv-x="1202" d="M92 145l82 80q-65 114 -65 246q0 99 39 190t105 157.5t157.5 105.5t191.5 39q136 0 254 -72l84 82l170 -178l-80 -78q66 -116 66 -246q0 -134 -66.5 -247t-180 -178.5t-247.5 -65.5q-142 0 -260 73l-80 -78zM418 463l194 190h-8q-80 0 -133 -53.5t-53 -128.5v-8zM586 287 h18q75 0 127.5 54.5t52.5 129.5v8z" />
<glyph unicode="&#xf9;" horiz-adv-x="1187" d="M123 432v512h307v-512q0 -64 38.5 -104.5t92.5 -40.5q68 0 112 41.5t44 103.5v512h327v-942h-327v6q-75 -28 -150 -28q-116 0 -217.5 57.5t-164 162.5t-62.5 232zM231 1403h281l129 -283h-197z" />
<glyph unicode="&#xfa;" horiz-adv-x="1187" d="M123 432v512h307v-512q0 -64 38.5 -104.5t92.5 -40.5q68 0 112 41.5t44 103.5v512h327v-942h-327v6q-75 -28 -150 -28q-116 0 -217.5 57.5t-164 162.5t-62.5 232zM459 1120l129 305h280l-213 -305h-196z" />
<glyph unicode="&#xfb;" horiz-adv-x="1187" d="M123 432v512h307v-512q0 -64 38.5 -104.5t92.5 -40.5q68 0 112 41.5t44 103.5v512h327v-942h-327v6q-75 -28 -150 -28q-116 0 -217.5 57.5t-164 162.5t-62.5 232zM238 1130l135 289h375l131 -289h-203l-117 158l-117 -158h-204z" />
<glyph unicode="&#xfc;" horiz-adv-x="1187" d="M123 432v512h307v-512q0 -64 38.5 -104.5t92.5 -40.5q68 0 112 41.5t44 103.5v512h327v-942h-327v6q-75 -28 -150 -28q-116 0 -217.5 57.5t-164 162.5t-62.5 232zM170 1241q0 66 48.5 114t115.5 48q66 0 114 -48t48 -114q0 -67 -48 -115.5t-114 -48.5q-68 0 -116 48.5 t-48 115.5zM641 1241q0 66 48.5 114t115.5 48q66 0 114 -48t48 -114q0 -67 -48 -115.5t-114 -48.5q-67 0 -115.5 48.5t-48.5 115.5z" />
<glyph unicode="&#xfd;" horiz-adv-x="1193" d="M123 436v506h309v-506q0 -63 39.5 -103t93.5 -40q68 0 113 41t45 102v506h328v-1028q0 -147 -65.5 -268t-189 -192.5t-280.5 -71.5h-223v329h229q96 0 148.5 54t52.5 149v92q-84 -26 -154 -26q-116 0 -218 58t-165 164t-63 234zM475 1120l129 305h281l-213 -305h-197z " />
<glyph unicode="&#xfe;" horiz-adv-x="1228" d="M57 -596v1817h328v-336q125 78 244 78q127 0 238.5 -61t182 -177t70.5 -260q0 -136 -66.5 -248t-179 -174.5t-245.5 -62.5q-128 0 -244 69v-645h-328zM444 471q0 -75 53.5 -128.5t133.5 -53.5q74 0 127 54t53 128q0 75 -52.5 129.5t-127.5 54.5q-79 0 -133 -54t-54 -130z " />
<glyph unicode="&#xff;" horiz-adv-x="1193" d="M123 436v506h309v-506q0 -63 39.5 -103t93.5 -40q68 0 113 41t45 102v506h328v-1028q0 -147 -65.5 -268t-189 -192.5t-280.5 -71.5h-223v329h229q96 0 148.5 54t52.5 149v92q-84 -26 -154 -26q-116 0 -218 58t-165 164t-63 234zM186 1241q0 66 48.5 114t115.5 48 q66 0 114 -48t48 -114q0 -67 -48 -115.5t-114 -48.5q-68 0 -116 48.5t-48 115.5zM657 1241q0 66 48.5 114t115.5 48q66 0 114 -48t48 -114q0 -67 -48 -115.5t-114 -48.5q-67 0 -115.5 48.5t-48.5 115.5z" />
<glyph unicode="&#x152;" horiz-adv-x="2144" d="M102 766q0 156 60.5 299t163 246.5t244.5 165t298 61.5h1143v-336h-551v-250h488v-340h-488v-282h551v-330h-1143q-209 0 -385 102.5t-278.5 278.5t-102.5 385zM477 768q0 -108 53 -207.5t149 -163t210 -63.5h168v864h-142q-95 0 -178.5 -36.5t-139.5 -97t-88 -138 t-32 -158.5z" />
<glyph unicode="&#x153;" horiz-adv-x="1835" d="M92 471q0 133 66.5 246.5t180 179.5t247.5 66q98 0 187.5 -37t156.5 -103q67 66 157 103t189 37q135 0 247.5 -66t176 -179t63.5 -247q0 -54 -8 -98h-684q28 -57 83.5 -92t121.5 -35q60 0 108 28l195 -194q-141 -100 -303 -100q-100 0 -189.5 36.5t-156.5 102.5 q-67 -66 -156.5 -102.5t-187.5 -36.5q-134 0 -247.5 65.5t-180 178.5t-66.5 247zM401 471q0 -76 54 -130t133 -54q75 0 127.5 54.5t52.5 129.5q0 74 -53 128t-127 54q-80 0 -133.5 -53.5t-53.5 -128.5zM1071 565h402q-25 58 -78 93.5t-119 35.5q-68 0 -122.5 -35.5 t-82.5 -93.5z" />
<glyph unicode="&#x178;" horiz-adv-x="1562" d="M20 1536h465l295 -512l297 512h465l-561 -971v-565h-399v565zM389 1812q0 66 48.5 114t115.5 48q66 0 114 -48t48 -114q0 -67 -48 -115t-114 -48q-68 0 -116 48t-48 115zM860 1812q0 66 48.5 114t115.5 48q66 0 114 -48t48 -114q0 -67 -48 -115t-114 -48q-68 0 -116 48 t-48 115z" />
<glyph unicode="&#x2c6;" horiz-adv-x="722" d="M41 1702l135 289h375l131 -289h-203l-117 158l-116 -158h-205z" />
<glyph unicode="&#x2dc;" horiz-adv-x="868" d="M41 1698q33 141 91.5 208t160.5 68q58 1 136 -38.5t114 -39.5q67 0 106 93l178 -50q-32 -146 -90 -209t-159 -63q-52 0 -97 19t-82.5 37.5t-72.5 17.5t-56.5 -22.5t-42.5 -71.5z" />
<glyph unicode="&#x2000;" horiz-adv-x="998" />
<glyph unicode="&#x2001;" horiz-adv-x="1997" />
<glyph unicode="&#x2002;" horiz-adv-x="998" />
<glyph unicode="&#x2003;" horiz-adv-x="1997" />
<glyph unicode="&#x2004;" horiz-adv-x="665" />
<glyph unicode="&#x2005;" horiz-adv-x="499" />
<glyph unicode="&#x2006;" horiz-adv-x="332" />
<glyph unicode="&#x2007;" horiz-adv-x="332" />
<glyph unicode="&#x2008;" horiz-adv-x="249" />
<glyph unicode="&#x2009;" horiz-adv-x="399" />
<glyph unicode="&#x200a;" horiz-adv-x="110" />
<glyph unicode="&#x2010;" horiz-adv-x="1011" d="M102 700v324h807v-324h-807z" />
<glyph unicode="&#x2011;" horiz-adv-x="1011" d="M102 700v324h807v-324h-807z" />
<glyph unicode="&#x2012;" horiz-adv-x="1011" d="M102 700v324h807v-324h-807z" />
<glyph unicode="&#x2013;" horiz-adv-x="1228" d="M102 700v324h1024v-324h-1024z" />
<glyph unicode="&#x2014;" horiz-adv-x="2252" d="M102 700v324h2048v-324h-2048z" />
<glyph unicode="&#x2018;" horiz-adv-x="405" d="M41 1210v20.5t7.5 52.5t22.5 76.5t49.5 86.5t82.5 90v-168q66 0 114 -46t48 -112t-48 -116t-114 -50t-114 50t-48 116z" />
<glyph unicode="&#x2019;" horiz-adv-x="581" d="M129 1370q0 66 48 116t114 50t114 -50t48 -116v-20.5t-7.5 -52.5t-22.5 -76.5t-49.5 -86.5t-82.5 -90v168q-66 0 -114 46t-48 112z" />
<glyph unicode="&#x201c;" horiz-adv-x="768" d="M41 1210v20.5t7.5 52.5t22.5 76.5t49.5 86.5t82.5 90v-168q66 0 114 -46t48 -112t-48 -116t-114 -50t-114 50t-48 116zM403 1210v20.5t7.5 52.5t22.5 76.5t49.5 86.5t82.5 90v-168q66 0 114 -46t48 -112t-48 -116t-114 -50t-114 50t-48 116z" />
<glyph unicode="&#x201d;" horiz-adv-x="944" d="M129 1370q0 66 48 116t114 50q63 0 112.5 -45.5t49.5 -120.5q0 -88 -41 -174.5t-121 -151.5v168q-66 0 -114 46t-48 112zM492 1370q0 66 47.5 116t113.5 50t114 -50t48 -116q0 -94 -46 -181.5t-116 -144.5v168q-66 0 -113.5 46t-47.5 112z" />
<glyph unicode="&#x202f;" horiz-adv-x="399" />
<glyph unicode="&#x205f;" horiz-adv-x="499" />
<glyph unicode="&#x25fc;" horiz-adv-x="942" d="M0 0v942h942v-942h-942z" />
</font>
</defs>
</svg>
